<svg width="377" height="422" viewBox="0 0 377 422" fill="none" xmlns="http://www.w3.org/2000/svg">
<g opacity="0.4">
<path d="M125.535 333.547C125.535 333.547 236.01 281.531 278.833 208.093C321.657 134.656 306.395 73.0754 276.743 51.8408C255.133 36.2922 218.19 55.0952 208.623 101.692C199.055 148.289 164.88 244.705 128.086 272.977L125.535 333.547Z" fill="#37474F"/>
<path d="M128.842 295.496C128.579 294.708 128.633 293.849 128.995 293.1C129.356 292.352 129.994 291.774 130.775 291.49C234.884 253.51 260.977 137.336 262.2 108.173C262.236 107.336 262.599 106.546 263.213 105.975C263.826 105.404 264.639 105.098 265.476 105.122C266.32 105.165 267.114 105.536 267.688 106.157C268.261 106.777 268.569 107.598 268.546 108.443C267.184 138.397 240.327 258.244 133.09 297.38C132.298 297.658 131.43 297.613 130.671 297.255C129.913 296.896 129.327 296.254 129.039 295.466L128.842 295.496Z" fill="white"/>
<path d="M151.73 296.367C149.119 289.9 148.928 282.709 151.192 276.113C154.905 268.113 164.311 264.689 170.994 258.899C181.993 249.413 185.362 233.229 182.584 218.996C179.084 204.851 172.477 191.664 163.242 180.393C145.759 156.827 151.328 124.793 138.368 99.2769C134.078 89.9083 127.324 81.8807 118.827 76.0513C114.567 73.205 109.665 71.4657 104.564 70.9908C99.4629 70.5159 94.3238 71.3205 89.6119 73.3317C82.172 77.5156 76.6403 84.4168 74.1762 92.5891C71.7322 100.772 70.3552 109.237 70.0793 117.773L67.977 145.839C67.8793 150.579 67.0195 155.273 65.4304 159.74C63.44 164.166 60.5078 168.105 56.8387 171.282C53.1695 174.46 48.8516 176.798 44.1858 178.135C34.5315 180.091 24.7721 175.807 15.0903 177.198C2.46776 179.196 -6.84492 191.327 -8.81152 203.989C-10.0838 216.818 -7.4068 229.729 -1.1388 240.994C4.48167 252.516 11.7383 263.193 16.9134 274.901C20.8354 282.646 22.4365 291.359 21.5244 299.992C19.1124 310.322 13.2211 319.507 4.83898 326.007C-0.578288 330.08 -5.35242 334.943 -9.32348 340.435C-12.7102 346.573 -14.2352 353.565 -13.712 360.556C-13.1013 374.246 -7.63549 387.271 1.70602 397.297C9.53965 405.48 22.5393 405.629 33.602 405.281C45.1109 404.743 56.4155 402.043 66.9249 397.321C93.9881 385.304 118.29 367.85 138.322 346.042C147.424 335.78 155.517 323.113 154.352 309.356C153.824 304.963 152.947 300.62 151.73 296.367Z" fill="#455A64"/>
<path d="M39.9653 373.018C39.7375 372.48 39.6834 371.885 39.8105 371.315C39.9376 370.745 40.2396 370.23 40.6743 369.84C107.924 309.302 121.91 150.546 109.907 99.8542C109.822 99.4946 109.808 99.1217 109.867 98.7567C109.925 98.3917 110.055 98.0419 110.249 97.7271C110.443 97.4124 110.697 97.1388 110.996 96.9222C111.296 96.7055 111.635 96.55 111.994 96.4644C112.354 96.3789 112.727 96.365 113.092 96.4236C113.457 96.4821 113.807 96.612 114.121 96.8058C114.436 96.9995 114.71 97.2533 114.926 97.5528C115.143 97.8523 115.299 98.1915 115.384 98.5511C127.701 150.368 113.285 312.343 44.635 374.41C44.3608 374.666 44.0381 374.863 43.6862 374.992C43.3342 375.12 42.9601 375.176 42.5859 375.158C42.2118 375.139 41.8453 375.045 41.508 374.882C41.1706 374.719 40.8694 374.49 40.6221 374.209C40.3161 373.867 40.0916 373.459 39.9653 373.018Z" fill="white"/>
<path d="M34.1238 238.033C33.9563 237.519 33.9414 236.966 34.0811 236.443C34.2208 235.92 34.5092 235.449 34.9111 235.087C35.313 234.724 35.8113 234.486 36.3459 234.4C36.8804 234.315 37.4283 234.386 37.9231 234.606C61.5462 249.691 80.1686 271.439 91.438 297.103C91.6206 297.77 91.5542 298.481 91.2513 299.103C90.9485 299.724 90.43 300.215 89.7922 300.482C89.1545 300.75 88.4412 300.777 87.7853 300.557C87.1294 300.338 86.5757 299.887 86.2275 299.29C75.2562 274.822 57.4442 254.049 34.9372 239.473C34.532 239.082 34.2494 238.582 34.1238 238.033Z" fill="white"/>
</g>
</svg>
