<svg width="60" height="60" viewBox="0 0 60 60" fill="none" xmlns="http://www.w3.org/2000/svg">
<path d="M30 60C46.5685 60 60 46.5685 60 30C60 13.4315 46.5685 0 30 0C13.4315 0 0 13.4315 0 30C0 46.5685 13.4315 60 30 60Z" fill="#6B61B1"/>
<path d="M30 55.625C44.1523 55.625 55.625 44.1523 55.625 30C55.625 15.8477 44.1523 4.375 30 4.375C15.8477 4.375 4.375 15.8477 4.375 30C4.375 44.1523 15.8477 55.625 30 55.625Z" fill="#FBC99D"/>
<path d="M42.847 30.7686L41.2677 29.1893C41.1448 29.0663 40.9955 28.9881 40.8385 28.9468V15.8346C40.8385 15.2428 40.359 14.7633 39.7673 14.7633H17.9463C17.3548 14.7633 16.875 15.2428 16.875 15.8346V47.6658C16.875 48.2573 17.3548 48.7371 17.9463 48.7371H30.49V51.6571C30.49 51.8703 30.5578 52.0666 30.6743 52.2243C30.696 52.2558 30.7178 52.2848 30.742 52.3116C30.9213 52.5053 31.1757 52.6266 31.4595 52.6266H38.0035C38.287 52.6266 38.544 52.5031 38.721 52.3091C38.7453 52.2823 38.7695 52.2533 38.7887 52.2243C38.905 52.0668 38.973 51.8706 38.973 51.6571V48.7371H39.7675C40.3593 48.7371 40.8387 48.2573 40.8387 47.6658V34.1191L42.8473 32.1106C43.2178 31.7398 43.2178 31.1391 42.847 30.7686Z" fill="#382B73"/>
<path d="M39.7673 46.9868H17.9463C17.3548 46.9868 16.875 46.5073 16.875 45.9156V14.0846C16.875 13.4928 17.3545 13.0133 17.9463 13.0133H39.7673C40.359 13.0133 40.8385 13.4928 40.8385 14.0846V45.9158C40.8385 46.5073 40.359 46.9868 39.7673 46.9868Z" fill="white"/>
<path d="M25.7114 17.6705H20.5334C20.1779 17.6705 19.8896 17.3823 19.8896 17.0268C19.8896 16.6713 20.1779 16.383 20.5334 16.383H25.7114C26.0669 16.383 26.3551 16.6713 26.3551 17.0268C26.3551 17.3823 26.0669 17.6705 25.7114 17.6705Z" fill="#BCBEC0"/>
<path d="M27.3741 25.7992H20.5334C20.1779 25.7992 19.8896 25.511 19.8896 25.1555C19.8896 24.8 20.1779 24.5117 20.5334 24.5117H27.3739C27.7294 24.5117 28.0176 24.8 28.0176 25.1555C28.0176 25.511 27.7296 25.7992 27.3741 25.7992Z" fill="#BCBEC0"/>
<path d="M27.3741 43.6408H20.5334C20.1779 43.6408 19.8896 43.3526 19.8896 42.9971C19.8896 42.6416 20.1779 42.3533 20.5334 42.3533H27.3739C27.7294 42.3533 28.0176 42.6416 28.0176 42.9971C28.0176 43.3526 27.7296 43.6408 27.3741 43.6408Z" fill="#BCBEC0"/>
<path d="M38.0171 28.7073H20.5334C20.1779 28.7073 19.8896 28.4191 19.8896 28.0636C19.8896 27.7081 20.1779 27.4198 20.5334 27.4198H38.0169C38.3724 27.4198 38.6606 27.7081 38.6606 28.0636C38.6606 28.4193 38.3726 28.7073 38.0171 28.7073Z" fill="#BCBEC0"/>
<path d="M38.0171 31.6155H20.5334C20.1779 31.6155 19.8896 31.3272 19.8896 30.9717C19.8896 30.6162 20.1779 30.328 20.5334 30.328H38.0169C38.3724 30.328 38.6606 30.6162 38.6606 30.9717C38.6606 31.3272 38.3726 31.6155 38.0171 31.6155Z" fill="#BCBEC0"/>
<path d="M38.0171 34.5238H20.5334C20.1779 34.5238 19.8896 34.2355 19.8896 33.88C19.8896 33.5245 20.1779 33.2363 20.5334 33.2363H38.0169C38.3724 33.2363 38.6606 33.5245 38.6606 33.88C38.6606 34.2355 38.3726 34.5238 38.0171 34.5238Z" fill="#BCBEC0"/>
<path d="M22.3571 20.5785H20.5336C20.1781 20.5785 19.8899 20.2903 19.8899 19.9348C19.8899 19.5793 20.1781 19.291 20.5336 19.291H22.3571C22.7126 19.291 23.0009 19.5793 23.0009 19.9348C23.0006 20.2905 22.7126 20.5785 22.3571 20.5785Z" fill="#BCBEC0"/>
<path d="M28.1572 20.5785H24.5725C24.217 20.5785 23.9287 20.2903 23.9287 19.9348C23.9287 19.5793 24.217 19.291 24.5725 19.291H28.1572C28.5127 19.291 28.801 19.5793 28.801 19.9348C28.8007 20.2905 28.5127 20.5785 28.1572 20.5785Z" fill="#BCBEC0"/>
<path d="M39.7673 13.0133H17.9463C17.3548 13.0133 16.875 13.4928 16.875 14.0846V14.2251H40.8385V14.0846C40.8385 13.4928 40.359 13.0133 39.7673 13.0133Z" fill="#F8AF6D"/>
<path d="M37.5815 22.2635C37.5815 21.9137 37.5117 21.6047 37.374 21.3447C37.2365 21.0855 37.03 20.8602 36.7597 20.675C36.5052 20.5005 36.1215 20.3275 35.5865 20.146C35.019 19.9532 34.7575 19.781 34.638 19.67C34.5505 19.589 34.4915 19.4862 34.4595 19.3595C34.4477 19.3135 34.448 19.2637 34.4595 19.2177C34.4955 19.0757 34.5645 18.9577 34.6675 18.8607C34.8332 18.705 35.0707 18.6295 35.3932 18.6295C35.7005 18.6295 35.9322 18.723 36.1015 18.9152C36.2817 19.1197 36.3692 19.3987 36.3692 19.7685C36.3692 19.9492 36.5157 20.0957 36.6965 20.0957H37.2067C37.3875 20.0957 37.534 19.9492 37.534 19.7685C37.534 19.7537 37.5312 19.741 37.5312 19.7262H37.534V19.399C37.534 18.7542 37.3692 18.23 37.0442 17.8405C36.818 17.5697 36.529 17.3772 36.1812 17.2652C36.0455 17.2215 35.952 17.097 35.952 16.9542V16.663V16.6207C35.952 16.44 35.8055 16.2935 35.6247 16.2935H35.1875C35.0067 16.2935 34.8602 16.44 34.8602 16.6207V16.663V16.946C34.8602 17.0905 34.7645 17.217 34.6257 17.2582C34.2955 17.3567 34.015 17.522 33.7882 17.7522C33.4412 18.1045 33.2652 18.5632 33.2652 19.116C33.2652 19.1817 33.2752 19.2417 33.2802 19.3045C33.2757 19.365 33.2652 19.4225 33.2652 19.4852C33.2652 20.0117 33.426 20.451 33.7432 20.791C34.0455 21.115 34.5362 21.3802 35.2347 21.5995C35.8222 21.803 36.085 21.9822 36.2017 22.0965C36.2735 22.1667 36.3257 22.2475 36.36 22.3397C36.3882 22.4152 36.3882 22.4997 36.3592 22.575C36.316 22.6875 36.245 22.7847 36.1437 22.871C35.9472 23.038 35.6917 23.119 35.363 23.119C34.9822 23.119 34.7005 23.0252 34.502 22.8322C34.3062 22.6417 34.211 22.3757 34.211 22.0185C34.211 21.8377 34.0645 21.6912 33.8837 21.6912H33.3692C33.1885 21.6912 33.042 21.8377 33.042 22.0185C33.042 22.0332 33.045 22.046 33.0452 22.0607H33.042V22.388C33.042 23.0365 33.2317 23.561 33.6057 23.9472C33.8655 24.2152 34.1985 24.4015 34.5997 24.5035C34.7447 24.5405 34.847 24.67 34.847 24.8195V25.03V25.0722C34.847 25.253 34.9935 25.3995 35.1742 25.3995H35.6072C35.788 25.3995 35.9345 25.253 35.9345 25.0722V25.03V24.804C35.9345 24.6577 36.0325 24.53 36.1735 24.4902C36.518 24.3935 36.8095 24.2295 37.0435 24C37.4002 23.6502 37.581 23.19 37.581 22.6325C37.581 22.5535 37.5762 22.4772 37.5692 22.4025C37.5725 22.3557 37.5815 22.312 37.5815 22.2635Z" fill="#D1D3D4"/>
<path d="M37.3742 21.3448C37.2367 21.0855 37.0302 20.8603 36.76 20.675C36.5055 20.5005 36.1215 20.3275 35.5867 20.146C35.0192 19.9533 34.7577 19.781 34.6385 19.6703C34.4985 19.5408 34.4302 19.356 34.4302 19.1053C34.4302 18.8423 34.508 18.6415 34.6677 18.4915C34.8335 18.3358 35.071 18.2603 35.3935 18.2603C35.7007 18.2603 35.9325 18.3538 36.1017 18.546C36.282 18.7505 36.3695 19.0295 36.3695 19.3993C36.3695 19.58 36.516 19.7265 36.6967 19.7265H37.207C37.3877 19.7265 37.5342 19.58 37.5342 19.3993C37.5342 18.7545 37.3695 18.2303 37.0445 17.8408C36.8182 17.57 36.5292 17.3775 36.1815 17.2655C36.0457 17.2218 35.9522 17.0973 35.9522 16.9545V16.621C35.9522 16.4403 35.8057 16.2938 35.625 16.2938H35.1877C35.007 16.2938 34.8605 16.4403 34.8605 16.621V16.9463C34.8605 17.091 34.7647 17.2173 34.626 17.2585C34.2957 17.357 34.0152 17.5223 33.7885 17.7525C33.4415 18.1045 33.2655 18.5635 33.2655 19.1163C33.2655 19.6428 33.4262 20.082 33.7435 20.422C34.0457 20.7458 34.5365 21.0113 35.235 21.2305C35.8225 21.434 36.0852 21.613 36.202 21.7275C36.3435 21.866 36.4122 22.044 36.4122 22.2718C36.4122 22.5255 36.327 22.7158 36.144 22.8713C35.9472 23.0383 35.6917 23.1193 35.3632 23.1193C34.9825 23.1193 34.7007 23.0255 34.5022 22.8325C34.3065 22.642 34.2112 22.376 34.2112 22.0188C34.2112 21.838 34.0647 21.6915 33.884 21.6915H33.3695C33.1887 21.6915 33.0422 21.838 33.0422 22.0188C33.0422 22.6673 33.232 23.1918 33.606 23.5778C33.8657 23.8458 34.1987 24.032 34.6 24.134C34.745 24.1708 34.8472 24.3005 34.8472 24.45V24.7028C34.8472 24.8835 34.9937 25.03 35.1745 25.03H35.6075C35.7882 25.03 35.9347 24.8835 35.9347 24.7028V24.4348C35.9347 24.2885 36.0327 24.1608 36.1737 24.121C36.5182 24.0243 36.8097 23.8603 37.0437 23.6308C37.4005 23.281 37.5812 22.8208 37.5812 22.263C37.5815 21.9138 37.5117 21.6045 37.3742 21.3448Z" fill="#6B61B1"/>
<path d="M37.3742 20.9752C37.2367 20.7159 37.0302 20.4907 36.76 20.3054C36.5055 20.1309 36.1215 19.9579 35.5867 19.7764C35.0192 19.5837 34.7577 19.4114 34.6385 19.3004C34.4985 19.1709 34.4302 18.9862 34.4302 18.7357C34.4302 18.4727 34.508 18.2719 34.6677 18.1219C34.8335 17.9662 35.071 17.8907 35.3935 17.8907C35.7007 17.8907 35.9325 17.9842 36.1017 18.1764C36.282 18.3809 36.3695 18.6599 36.3695 19.0297C36.3695 19.2104 36.516 19.3569 36.6967 19.3569H37.207C37.3877 19.3569 37.5342 19.2104 37.5342 19.0297C37.5342 18.3849 37.3695 17.8607 37.0445 17.4712C36.8182 17.2004 36.5292 17.0079 36.1815 16.8959C36.0457 16.8522 35.9522 16.7277 35.9522 16.5849V16.2514C35.9522 16.0707 35.8057 15.9242 35.625 15.9242H35.1877C35.007 15.9242 34.8605 16.0707 34.8605 16.2514V16.5767C34.8605 16.7214 34.7647 16.8477 34.626 16.8889C34.2957 16.9874 34.0152 17.1527 33.7885 17.3829C33.4415 17.7349 33.2655 18.1939 33.2655 18.7467C33.2655 19.2732 33.4262 19.7124 33.7435 20.0524C34.0457 20.3764 34.5365 20.6417 35.235 20.8609C35.8225 21.0644 36.0852 21.2434 36.202 21.3579C36.3435 21.4964 36.4122 21.6744 36.4122 21.9022C36.4122 22.1557 36.327 22.3462 36.144 22.5017C35.9472 22.6687 35.6917 22.7499 35.3632 22.7499C34.9825 22.7499 34.7007 22.6562 34.5022 22.4629C34.3065 22.2724 34.2112 22.0064 34.2112 21.6492C34.2112 21.4684 34.0647 21.3219 33.884 21.3219H33.3695C33.1887 21.3219 33.0422 21.4684 33.0422 21.6492C33.0422 22.2977 33.232 22.8222 33.606 23.2082C33.8657 23.4762 34.1987 23.6624 34.6 23.7644C34.745 23.8014 34.8472 23.9309 34.8472 24.0804V24.3332C34.8472 24.5139 34.9937 24.6604 35.1745 24.6604H35.6075C35.7882 24.6604 35.9347 24.5139 35.9347 24.3332V24.0652C35.9347 23.9189 36.0327 23.7912 36.1737 23.7514C36.5182 23.6547 36.8097 23.4907 37.0437 23.2612C37.4005 22.9114 37.5812 22.4512 37.5812 21.8934C37.5815 21.5442 37.5117 21.2352 37.3742 20.9752Z" fill="#6B61B1"/>
<path d="M40.8386 33.3988V28.2265C40.5229 28.1433 40.1736 28.2215 39.9261 28.469L37.6759 30.7193L30.5096 37.8855L28.6449 42.3398C28.5574 42.5488 28.7674 42.7588 28.9764 42.6713L33.4309 40.8065L40.5971 33.6403L40.8386 33.3988Z" fill="#BCBEC0"/>
<path d="M37.6753 29.6823L40.5959 32.6029L33.4306 39.7681L30.51 36.8475L37.6753 29.6823Z" fill="#6B61B1"/>
<path d="M38.4163 30.4238L39.8541 31.8616L32.6889 39.0269L31.251 37.589L38.4163 30.4238Z" fill="#6B61B1"/>
<path d="M28.6446 41.3101L30.5094 36.8558L33.4304 39.7768L28.9759 41.6416C28.7671 41.7291 28.5571 41.5191 28.6446 41.3101Z" fill="#E6E7E8"/>
<path d="M28.647 41.5115L31.2222 37.5682L31.97 38.316L32.718 39.064L28.7747 41.6392C28.7185 41.6137 28.6725 41.5677 28.647 41.5115Z" fill="white"/>
<path d="M42.847 29.0185L41.2678 27.4393C40.8973 27.0688 40.2965 27.0688 39.926 27.4393L37.6758 29.6895L40.5968 32.6105L42.847 30.3603C43.2175 29.9898 43.2175 29.389 42.847 29.0185Z" fill="#6B61B1"/>
<path d="M42.3057 28.4771L41.8092 27.9806C41.5492 27.7206 41.1277 27.7206 40.8677 27.9806L38.4172 30.4311L39.8552 31.8691L42.3057 29.4188C42.5657 29.1586 42.5657 28.7371 42.3057 28.4771Z" fill="#6B61B1"/>
<path d="M37.6753 29.6815L40.5959 32.6021L39.6526 33.5454L36.732 30.6248L37.6753 29.6815Z" fill="#F8AF6D"/>
<path d="M38.4167 30.4231L39.8546 31.8609L38.9113 32.8042L37.4734 31.3664L38.4167 30.4231Z" fill="#FBC99D"/>
<path d="M28.6445 41.3104L28.953 40.5734L29.1277 40.1559L30.1299 41.1582L29.4982 41.4227L28.976 41.6414C28.7672 41.7287 28.5575 41.5192 28.6445 41.3104Z" fill="#F8AF6D"/>
<path d="M28.645 41.5073L29.3615 40.3898L29.8963 40.9246L28.7788 41.6411C28.7193 41.6153 28.671 41.5668 28.645 41.5073Z" fill="#FBC99D"/>
<path d="M23.8373 40.945C23.7851 40.945 23.7328 40.943 23.6803 40.9393C23.0216 40.8913 22.3881 40.5575 21.9268 40.0278C21.5251 40.3075 21.0908 40.5415 20.6323 40.7243C20.3681 40.8293 20.0686 40.7005 19.9633 40.4363C19.8583 40.172 19.9871 39.8725 20.2513 39.7673C20.6576 39.6055 21.0411 39.3958 21.3936 39.1435C21.2058 38.6705 21.1196 38.1373 21.1416 37.5705C21.1611 37.069 21.2716 36.671 21.4796 36.3538C21.7903 35.8805 22.3183 35.6208 22.8256 35.6935C23.5618 35.7985 23.9871 36.5295 23.9731 37.176C23.9596 37.802 23.6173 38.3203 23.3613 38.6555C23.1661 38.9113 22.9526 39.1508 22.7228 39.3728C23.0043 39.684 23.3818 39.8848 23.7553 39.912C24.2113 39.946 24.6733 39.6985 24.8493 39.3248C24.9188 39.1773 24.9356 39.0263 24.8943 38.9215C24.8656 38.8485 24.7943 38.8058 24.7713 38.8083C24.4901 38.8305 24.2388 38.6213 24.2153 38.3378C24.1916 38.0545 24.4023 37.8055 24.6858 37.7818C25.1811 37.743 25.6603 38.0545 25.8531 38.5445C25.9981 38.9138 25.9718 39.3578 25.7811 39.763C25.4461 40.4748 24.6621 40.9448 23.8373 40.945ZM22.6556 36.7113C22.5521 36.7113 22.4211 36.796 22.3406 36.9185C22.2383 37.0748 22.1826 37.3013 22.1706 37.6105C22.1598 37.8833 22.1836 38.1478 22.2391 38.3935C22.3453 38.2773 22.4468 38.156 22.5428 38.0303C22.8108 37.6795 22.9381 37.401 22.9436 37.1535C22.9481 36.9508 22.8176 36.7325 22.6803 36.713C22.6721 36.7118 22.6641 36.7113 22.6556 36.7113Z" fill="#BCBEC0"/>
<path d="M38.973 43.3631V49.9071C38.973 50.1203 38.9052 50.3166 38.7887 50.4743C38.7692 50.5033 38.7452 50.5326 38.721 50.5591C38.544 50.7531 38.2872 50.8766 38.0035 50.8766H31.4595C31.176 50.8766 30.9215 50.7553 30.742 50.5616C30.7177 50.5348 30.696 50.5058 30.6742 50.4743C30.558 50.3168 30.49 50.1206 30.49 49.9071V43.3631C30.49 42.8298 30.9237 42.3936 31.4595 42.3936H38.0035C38.539 42.3936 38.973 42.8298 38.973 43.3631Z" fill="#FBC99D"/>
<path d="M36.7743 50.2264H32.3718C32.1641 50.2264 31.9958 50.0582 31.9958 49.8504V49.0624C31.9958 48.1144 32.7644 47.3459 33.7126 47.3459H35.4338C36.3818 47.3459 37.1503 48.1144 37.1503 49.0624V49.8504C37.1503 50.0579 36.9821 50.2264 36.7743 50.2264Z" fill="#6B61B1"/>
<path d="M36.395 47.6399V50.2264H36.7743C36.982 50.2264 37.1503 50.0581 37.1503 49.8504V49.0624C37.1503 48.4704 36.8508 47.9484 36.395 47.6399Z" fill="#6B61B1"/>
<path d="M35.5077 47.3457L34.9884 47.1219V47.3457L34.5729 47.9929L34.1577 47.3457V47.1219L33.6384 47.3457L34.5729 49.8817L35.5077 47.3457Z" fill="#D1D3D4"/>
<path d="M33.6384 47.3457L34.0309 48.4095C34.0467 48.4525 34.1017 48.4645 34.1342 48.432L34.5732 47.993L34.1579 47.3457V47.1219L33.6384 47.3457Z" fill="white"/>
<path d="M35.5077 47.3457L35.1152 48.4095C35.0995 48.4525 35.0445 48.4645 35.012 48.432L34.573 47.993L34.9882 47.3457V47.1219L35.5077 47.3457Z" fill="white"/>
<path d="M34.573 46.7792C34.4277 46.7792 34.2882 46.7555 34.1577 46.712V47.1675V47.3457L34.573 47.993L34.9882 47.3457V47.277V46.712C34.858 46.7555 34.7182 46.7792 34.573 46.7792Z" fill="#E6E7E8"/>
<path d="M34.9208 48.3407L34.6618 48.5997C34.6128 48.6487 34.5336 48.6487 34.4846 48.5997L34.2256 48.3407L34.5733 47.9929L34.9208 48.3407Z" fill="#6B61B1"/>
<path d="M34.6618 48.5999C34.6128 48.6489 34.5336 48.6489 34.4846 48.5999L34.3958 48.5111L34.3188 49.1914L34.5733 49.8819L34.8279 49.1914L34.7509 48.5111L34.6618 48.5999Z" fill="#6B61B1"/>
<path d="M33.3474 48.4598L33.5684 48.2648C33.6094 48.2288 33.5879 48.1613 33.5336 48.1555L33.2741 48.1278C33.2336 48.1235 33.2079 48.0823 33.2219 48.044L33.4684 47.3635C33.5249 47.3553 33.5819 47.3498 33.6394 47.3478L34.5731 49.882L33.3426 48.5493C33.3189 48.5233 33.3209 48.483 33.3474 48.4598Z" fill="#6B61B1"/>
<path d="M35.799 48.4598L35.578 48.2648C35.537 48.2288 35.5585 48.1613 35.6128 48.1555L35.8723 48.1278C35.9128 48.1235 35.9383 48.0823 35.9245 48.044L35.6778 47.3635C35.6213 47.3553 35.5642 47.3498 35.5067 47.3478L34.573 49.882L35.8035 48.5493C35.8275 48.5233 35.8253 48.483 35.799 48.4598Z" fill="#6B61B1"/>
<path d="M36.0986 49.7055H35.2525C35.2038 49.7055 35.1646 49.745 35.1646 49.7935C35.1646 49.8422 35.204 49.8815 35.2525 49.8815H36.0986C36.1473 49.8815 36.1866 49.842 36.1866 49.7935C36.1868 49.745 36.1473 49.7055 36.0986 49.7055Z" fill="#6B61B1"/>
<path d="M32.7511 50.2264V47.6399C32.2953 47.9484 31.9958 48.4704 31.9958 49.0621V49.8501C31.9958 50.0579 32.1641 50.2261 32.3718 50.2261H32.7511V50.2264Z" fill="#6B61B1"/>
<path d="M36.3007 44.7371C36.3007 45.6913 35.5272 46.4648 34.5732 46.4648C33.619 46.4648 32.8455 45.6913 32.8455 44.7371C32.8455 43.7831 33.619 43.0096 34.5732 43.0096C35.5272 43.0093 36.3007 43.7828 36.3007 44.7371Z" fill="#6B61B1"/>
<path d="M34.5729 46.7792C33.8499 46.7792 33.2639 46.1932 33.2639 45.4702V44.7904C33.2639 44.0674 33.8499 43.4814 34.5729 43.4814C35.2959 43.4814 35.8819 44.0674 35.8819 44.7904V45.4702C35.8822 46.1932 35.2959 46.7792 34.5729 46.7792Z" fill="white"/>
<path d="M34.573 46.7792C34.4277 46.7792 34.2882 46.7555 34.1577 46.712V46.9615C34.2885 47.0052 34.4277 47.03 34.573 47.03C34.7182 47.03 34.8577 47.0052 34.9882 46.9615V46.712C34.858 46.7555 34.7182 46.7792 34.573 46.7792Z" fill="#D1D3D4"/>
<path d="M33.264 45.47V45.061C33.031 45.061 32.8423 45.2497 32.8423 45.4827C32.8423 45.7157 33.031 45.9045 33.264 45.9045C33.2885 45.9045 33.3123 45.9025 33.3358 45.8985C33.2893 45.7642 33.264 45.62 33.264 45.47Z" fill="white"/>
<path d="M35.8823 45.061V45.47C35.8823 45.62 35.857 45.764 35.8105 45.8982C35.8338 45.9022 35.8578 45.9042 35.8823 45.9042C36.1153 45.9042 36.304 45.7155 36.304 45.4825C36.3038 45.2497 36.115 45.061 35.8823 45.061Z" fill="white"/>
<path d="M34.5729 46.5912C33.8499 46.5912 33.2639 46.0052 33.2639 45.2822V45.4702C33.2639 46.1932 33.8499 46.7792 34.5729 46.7792C35.2959 46.7792 35.8819 46.1932 35.8819 45.4702V45.2822C35.8822 46.0052 35.2959 46.5912 34.5729 46.5912Z" fill="#E6E7E8"/>
<path d="M33.2639 44.7905V45.0482C33.7757 44.75 34.1202 44.197 34.1227 43.5625C33.6219 43.7463 33.2639 44.226 33.2639 44.7905Z" fill="#E6E7E8"/>
<path d="M35.259 45.0947C35.479 45.0947 35.6885 45.0524 35.882 44.9774V44.7902C35.882 44.0672 35.296 43.4812 34.573 43.4812C34.1945 43.4812 33.8545 43.6427 33.6155 43.8994C33.8402 44.5932 34.4907 45.0947 35.259 45.0947Z" fill="#E6E7E8"/>
<path d="M33.54 43.352C33.6268 44.225 34.3633 44.9068 35.259 44.9068C35.6463 44.9068 36.0038 44.7793 36.292 44.564C36.2053 43.691 35.4688 43.0093 34.573 43.0093C34.1858 43.0093 33.8283 43.1368 33.54 43.352Z" fill="#6B61B1"/>
<path d="M32.8455 44.7371C32.8455 44.8159 32.8512 44.8931 32.8615 44.9689C33.5892 44.7654 34.1232 44.0981 34.1232 43.3054C34.1232 43.2269 34.1175 43.1496 34.1072 43.0736C33.3795 43.2769 32.8455 43.9444 32.8455 44.7371Z" fill="#6B61B1"/>
<path d="M34.1747 45.2987C34.1747 45.3862 34.1037 45.4572 34.0162 45.4572C33.9287 45.4572 33.8577 45.3862 33.8577 45.2987C33.8577 45.2112 33.9287 45.1402 34.0162 45.1402C34.1037 45.1399 34.1747 45.2109 34.1747 45.2987Z" fill="#6B61B1"/>
<path d="M35.2464 45.4572C35.3339 45.4572 35.4049 45.3862 35.4049 45.2987C35.4049 45.2112 35.3339 45.1402 35.2464 45.1402C35.1589 45.1402 35.0879 45.2112 35.0879 45.2987C35.0879 45.3862 35.1589 45.4572 35.2464 45.4572Z" fill="#6B61B1"/>
<path d="M33.264 45.4702V45.2404C33.1302 45.2404 33.0217 45.3489 33.0217 45.4827C33.0217 45.6164 33.1302 45.7249 33.264 45.7249C33.2725 45.7249 33.2805 45.7232 33.2887 45.7224C33.2727 45.6407 33.264 45.5564 33.264 45.4702Z" fill="#E6E7E8"/>
<path d="M35.8831 45.4702V45.2404C36.0169 45.2404 36.1254 45.3489 36.1254 45.4827C36.1254 45.6164 36.0169 45.7249 35.8831 45.7249C35.8746 45.7249 35.8666 45.7232 35.8584 45.7224C35.8744 45.6407 35.8831 45.5564 35.8831 45.4702Z" fill="#E6E7E8"/>
</svg>
